<svg id="SvgjsSvg1006" width="921.5" height="367.671875" xmlns="http://www.w3.org/2000/svg" version="1.1" xmlns:xlink="http://www.w3.org/1999/xlink" xmlns:svgjs="http://svgjs.com/svgjs"><defs id="SvgjsDefs1007"><marker id="SvgjsMarker1022" markerWidth="16" markerHeight="12" refX="16" refY="6" viewBox="0 0 16 12" orient="auto" markerUnits="userSpaceOnUse"><path id="SvgjsPath1023" d="M0,2 L14,6 L0,11 L0,2" fill="#323232" stroke="#323232" stroke-width="2"></path></marker><marker id="SvgjsMarker1026" markerWidth="16" markerHeight="12" refX="16" refY="6" viewBox="0 0 16 12" orient="auto" markerUnits="userSpaceOnUse"><path id="SvgjsPath1027" d="M0,2 L14,6 L0,11 L0,2" fill="#323232" stroke="#323232" stroke-width="2"></path></marker><marker id="SvgjsMarker1042" markerWidth="16" markerHeight="12" refX="16" refY="6" viewBox="0 0 16 12" orient="auto" markerUnits="userSpaceOnUse"><path id="SvgjsPath1043" d="M0,2 L14,6 L0,11 L0,2" fill="#323232" stroke="#323232" stroke-width="2"></path></marker><marker id="SvgjsMarker1046" markerWidth="16" markerHeight="12" refX="16" refY="6" viewBox="0 0 16 12" orient="auto" markerUnits="userSpaceOnUse"><path id="SvgjsPath1047" d="M0,2 L14,6 L0,11 L0,2" fill="#323232" stroke="#323232" stroke-width="2"></path></marker><marker id="SvgjsMarker1066" markerWidth="16" markerHeight="12" refX="16" refY="6" viewBox="0 0 16 12" orient="auto" markerUnits="userSpaceOnUse"><path id="SvgjsPath1067" d="M0,2 L14,6 L0,11 L0,2" fill="#323232" stroke="#323232" stroke-width="2"></path></marker><marker id="SvgjsMarker1070" markerWidth="16" markerHeight="12" refX="16" refY="6" viewBox="0 0 16 12" orient="auto" markerUnits="userSpaceOnUse"><path id="SvgjsPath1071" d="M0,2 L14,6 L0,11 L0,2" fill="#323232" stroke="#323232" stroke-width="2"></path></marker><marker id="SvgjsMarker1084" markerWidth="16" markerHeight="12" refX="16" refY="6" viewBox="0 0 16 12" orient="auto" markerUnits="userSpaceOnUse"><path id="SvgjsPath1085" d="M0,2 L14,6 L0,11 L0,2" fill="#323232" stroke="#323232" stroke-width="2"></path></marker><marker id="SvgjsMarker1088" markerWidth="16" markerHeight="12" refX="16" refY="6" viewBox="0 0 16 12" orient="auto" markerUnits="userSpaceOnUse"><path id="SvgjsPath1089" d="M0,2 L14,6 L0,11 L0,2" fill="#323232" stroke="#323232" stroke-width="2"></path></marker><marker id="SvgjsMarker1104" markerWidth="16" markerHeight="12" refX="16" refY="6" viewBox="0 0 16 12" orient="auto" markerUnits="userSpaceOnUse"><path id="SvgjsPath1105" d="M0,2 L14,6 L0,11 L0,2" fill="#323232" stroke="#323232" stroke-width="2"></path></marker><marker id="SvgjsMarker1114" markerWidth="16" markerHeight="12" refX="16" refY="6" viewBox="0 0 16 12" orient="auto" markerUnits="userSpaceOnUse"><path id="SvgjsPath1115" d="M0,2 L14,6 L0,11 L0,2" fill="#323232" stroke="#323232" stroke-width="2"></path></marker><marker id="SvgjsMarker1118" markerWidth="16" markerHeight="12" refX="16" refY="6" viewBox="0 0 16 12" orient="auto" markerUnits="userSpaceOnUse"><path id="SvgjsPath1119" d="M0,2 L14,6 L0,11 L0,2" fill="#323232" stroke="#323232" stroke-width="2"></path></marker><marker id="SvgjsMarker1126" markerWidth="16" markerHeight="12" refX="16" refY="6" viewBox="0 0 16 12" orient="auto" markerUnits="userSpaceOnUse"><path id="SvgjsPath1127" d="M0,2 L14,6 L0,11 L0,2" fill="#323232" stroke="#323232" stroke-width="2"></path></marker></defs><g id="SvgjsG1008" transform="translate(221,164.671875)"><path id="SvgjsPath1009" d="M 0 0L 137.5 0L 137.5 52L 0 52Z" stroke="#323232" stroke-width="2" fill-opacity="1" fill="#ffffff"></path><g id="SvgjsG1010"><text id="SvgjsText1011" font-family="微软雅黑" text-anchor="middle" font-size="13px" width="74" fill="#323232" font-weight="400" align="middle" anchor="middle" family="微软雅黑" size="13px" weight="400" font-style="" y="16.05" transform="rotate(0)"><tspan id="SvgjsTspan1012" dy="16" x="69"><tspan id="SvgjsTspan1013" style="text-decoration:;">1.低通滤波器</tspan></tspan></text></g></g><g id="SvgjsG1014" transform="translate(221,290.671875)"><path id="SvgjsPath1015" d="M 0 0L 137.5 0L 137.5 52L 0 52Z" stroke="#323232" stroke-width="2" fill-opacity="1" fill="#ffffff"></path><g id="SvgjsG1016"><text id="SvgjsText1017" font-family="微软雅黑" text-anchor="middle" font-size="13px" width="76" fill="#323232" font-weight="400" align="middle" anchor="middle" family="微软雅黑" size="13px" weight="400" font-style="" y="16.05" transform="rotate(0)"><tspan id="SvgjsTspan1018" dy="16" x="69"><tspan id="SvgjsTspan1019" style="text-decoration:;">2.高通滤波器</tspan></tspan></text></g></g><g id="SvgjsG1020"><path id="SvgjsPath1021" d="M150 251.671875L185.5 251.671875L185.5 190.671875L221 190.671875" stroke="#323232" stroke-width="2" fill="none" marker-end="url(#SvgjsMarker1022)"></path></g><g id="SvgjsG1024"><path id="SvgjsPath1025" d="M150 251.671875L185.5 251.671875L185.5 316.671875L221 316.671875" stroke="#323232" stroke-width="2" fill="none" marker-end="url(#SvgjsMarker1026)"></path></g><g id="SvgjsG1028" transform="translate(417.5,164.671875)"><path id="SvgjsPath1029" d="M 0 0L 127 0L 127 52L 0 52Z" stroke="#323232" stroke-width="2" fill-opacity="1" fill="#ffffff"></path><g id="SvgjsG1030"><text id="SvgjsText1031" font-family="微软雅黑" text-anchor="middle" font-size="13px" width="50" fill="#323232" font-weight="400" align="middle" anchor="middle" family="微软雅黑" size="13px" weight="400" font-style="" y="16.05" transform="rotate(0)"><tspan id="SvgjsTspan1032" dy="16" x="63.5"><tspan id="SvgjsTspan1033" style="text-decoration:;">5.移频器</tspan></tspan></text></g></g><g id="SvgjsG1034" transform="translate(417.5,290.671875)"><path id="SvgjsPath1035" d="M 0 0L 127 0L 127 52L 0 52Z" stroke="#323232" stroke-width="2" fill-opacity="1" fill="#ffffff"></path><g id="SvgjsG1036"><text id="SvgjsText1037" font-family="微软雅黑" text-anchor="middle" font-size="13px" width="50" fill="#323232" font-weight="400" align="middle" anchor="middle" family="微软雅黑" size="13px" weight="400" font-style="" y="16.05" transform="rotate(0)"><tspan id="SvgjsTspan1038" dy="16" x="63.5"><tspan id="SvgjsTspan1039" style="text-decoration:;">6.调幅器</tspan></tspan></text></g></g><g id="SvgjsG1040"><path id="SvgjsPath1041" d="M358.5 190.671875L388 190.671875L388 190.671875L417.5 190.671875" stroke="#323232" stroke-width="2" fill="none" marker-end="url(#SvgjsMarker1042)"></path></g><g id="SvgjsG1044"><path id="SvgjsPath1045" d="M358.5 316.671875L388 316.671875L388 316.671875L417.5 316.671875" stroke="#323232" stroke-width="2" fill="none" marker-end="url(#SvgjsMarker1046)"></path></g><g id="SvgjsG1048" transform="translate(419.8333333333335,30.328482224508434)"><path id="SvgjsPath1049" d="M 0 0L 122.33333333333303 0L 122.33333333333303 57.35345221764976L 0 57.35345221764976Z" stroke="#323232" stroke-width="2" fill-opacity="1" fill="#ffffff"></path><g id="SvgjsG1050"><text id="SvgjsText1051" font-family="微软雅黑" text-anchor="middle" font-size="13px" width="102" fill="#323232" font-weight="400" align="middle" anchor="middle" family="微软雅黑" size="13px" weight="400" font-style="" y="18.72672610882488" transform="rotate(0)"><tspan id="SvgjsTspan1052" dy="16" x="61.5"><tspan id="SvgjsTspan1053" style="text-decoration:;">4.双耳节拍生成器</tspan></tspan></text></g></g><g id="SvgjsG1054" transform="translate(25,25.011914628105444)"><path id="SvgjsPath1055" d="M 22.5 0L 139 0C 153 0 153 66 139 66L 22.5 66C -7.5 66 -7.5 0 22.5 0ZM 139 0C 125.25 0 125.25 66 139 66C 125.25 66 125.25 0 139 0" stroke="#323232" stroke-width="2" fill-opacity="1" fill="#ffffff"></path><g id="SvgjsG1056"><text id="SvgjsText1057" font-family="微软雅黑" text-anchor="middle" font-size="13px" width="112" fill="#323232" font-weight="400" align="middle" anchor="middle" family="微软雅黑" size="13px" weight="400" font-style="" y="7.05" transform="rotate(0)"><tspan id="SvgjsTspan1058" dy="16" x="60"><tspan id="SvgjsTspan1059" style="text-decoration:;">起始双耳节拍频率</tspan></tspan><tspan id="SvgjsTspan1060" dy="16" x="60"><tspan id="SvgjsTspan1061" style="text-decoration:;">+结束双耳节拍频率</tspan></tspan><tspan id="SvgjsTspan1062" dy="16" x="60"><tspan id="SvgjsTspan1063" style="text-decoration:;">（外部输入）</tspan></tspan></text></g></g><g id="SvgjsG1064"><path id="SvgjsPath1065" d="M175 58.011914628105444C 194.3374155191265 58.011914628105444 203.99591781420693 59.005208333333286 223.33333333333343 59.005208333333286" stroke="#323232" stroke-width="2" fill="none" marker-end="url(#SvgjsMarker1066)"></path></g><g id="SvgjsG1068"><path id="SvgjsPath1069" d="M542.1666666666656 59.005208333333314C 638.0088749513711 59.005208333333314 481 194.82966671529448 481 290.671875" stroke-dasharray="3,3" stroke="#323232" stroke-width="2" fill="none" marker-end="url(#SvgjsMarker1070)"></path><rect id="SvgjsRect1072" width="26" height="16" x="534.5241614400974" y="130.8977135599021" fill="#ffffff"></rect><text id="SvgjsText1073" font-family="微软雅黑" text-anchor="middle" font-size="13px" width="26" fill="#323232" font-weight="400" align="top" anchor="middle" family="微软雅黑" size="13px" weight="400" font-style="" y="128.9477135599021" transform="rotate(0)"><tspan id="SvgjsTspan1074" dy="16" x="547.5241614400974"><tspan id="SvgjsTspan1075" style="text-decoration:;">输入</tspan></tspan></text></g><g id="SvgjsG1076" transform="translate(622.5,224.671875)"><path id="SvgjsPath1077" d="M 0 0L 115 0L 115 54L 0 54Z" stroke="#323232" stroke-width="2" fill-opacity="1" fill="#ffffff"></path><g id="SvgjsG1078"><text id="SvgjsText1079" font-family="微软雅黑" text-anchor="middle" font-size="13px" width="50" fill="#323232" font-weight="400" align="middle" anchor="middle" family="微软雅黑" size="13px" weight="400" font-style="" y="17.05" transform="rotate(0)"><tspan id="SvgjsTspan1080" dy="16" x="57.5"><tspan id="SvgjsTspan1081" style="text-decoration:;">7.混音器</tspan></tspan></text></g></g><g id="SvgjsG1082"><path id="SvgjsPath1083" d="M544.5 190.671875L583.5 190.671875L583.5 251.671875L622.5 251.671875" stroke="#323232" stroke-width="2" fill="none" marker-end="url(#SvgjsMarker1084)"></path></g><g id="SvgjsG1086"><path id="SvgjsPath1087" d="M544.5 316.671875L583.5 316.671875L583.5 251.671875L622.5 251.671875" stroke="#323232" stroke-width="2" fill="none" marker-end="url(#SvgjsMarker1088)"></path></g><g id="SvgjsG1090" transform="translate(796.5,226.671875)"><path id="SvgjsPath1091" d="M 16.666666666666668 0L 83.33333333333333 0C 105.55555555555556 0 105.55555555555556 50 83.33333333333333 50L 16.666666666666668 50C -5.555555555555556 50 -5.555555555555556 0 16.666666666666668 0Z" stroke="#323232" stroke-width="2" fill-opacity="1" fill="#ffffff"></path><g id="SvgjsG1092"><text id="SvgjsText1093" font-family="微软雅黑" text-anchor="middle" font-size="13px" width="52" fill="#323232" font-weight="400" align="middle" anchor="middle" family="微软雅黑" size="13px" weight="400" font-style="" y="15.05" transform="rotate(0)"><tspan id="SvgjsTspan1094" dy="16" x="50"><tspan id="SvgjsTspan1095" style="text-decoration:;">输出音乐</tspan></tspan></text></g></g><g id="SvgjsG1096" transform="translate(50,226.671875)"><path id="SvgjsPath1097" d="M 16.666666666666668 0L 83.33333333333333 0C 105.55555555555556 0 105.55555555555556 50 83.33333333333333 50L 16.666666666666668 50C -5.555555555555556 50 -5.555555555555556 0 16.666666666666668 0Z" stroke="#323232" stroke-width="2" fill-opacity="1" fill="#ffffff"></path><g id="SvgjsG1098"><text id="SvgjsText1099" font-family="微软雅黑" text-anchor="middle" font-size="13px" width="52" fill="#323232" font-weight="400" align="middle" anchor="middle" family="微软雅黑" size="13px" weight="400" font-style="" y="15.05" transform="rotate(0)"><tspan id="SvgjsTspan1100" dy="16" x="50"><tspan id="SvgjsTspan1101" style="text-decoration:;">输入音乐</tspan></tspan></text></g></g><g id="SvgjsG1102"><path id="SvgjsPath1103" d="M737.5 251.671875L767 251.671875L767 251.671875L796.5 251.671875" stroke="#323232" stroke-width="2" fill="none" marker-end="url(#SvgjsMarker1104)"></path></g><g id="SvgjsG1106" transform="translate(223.33333333333343,31.671875)"><path id="SvgjsPath1107" d="M 0 0L 132.83333333333314 0L 132.83333333333314 54.6666666666666L 0 54.6666666666666Z" stroke="#323232" stroke-width="2" fill-opacity="1" fill="#ffffff"></path><g id="SvgjsG1108"><text id="SvgjsText1109" font-family="微软雅黑" text-anchor="middle" font-size="13px" width="76" fill="#323232" font-weight="400" align="middle" anchor="middle" family="微软雅黑" size="13px" weight="400" font-style="" y="17.3833333333333" transform="rotate(0)"><tspan id="SvgjsTspan1110" dy="16" x="66.5"><tspan id="SvgjsTspan1111" style="text-decoration:;">3.时频计算器</tspan></tspan></text></g></g><g id="SvgjsG1112"><path id="SvgjsPath1113" d="M356.1666666666666 59.005208333333314L388 59.005208333333314L388 59.005208333333314L419.8333333333335 59.005208333333314" stroke="#323232" stroke-width="2" fill="none" marker-end="url(#SvgjsMarker1114)"></path></g><g id="SvgjsG1116"><path id="SvgjsPath1117" d="M289.75 86.3385416666666C 289.75 169.00672041627848 481 82.00369625038812 481 164.671875" stroke-dasharray="3,3" stroke="#323232" stroke-width="2" fill="none" marker-end="url(#SvgjsMarker1118)"></path><rect id="SvgjsRect1120" width="26" height="16" x="372.375" y="117.5052083333333" fill="#ffffff"></rect><text id="SvgjsText1121" font-family="微软雅黑" text-anchor="middle" font-size="13px" width="26" fill="#323232" font-weight="400" align="top" anchor="middle" family="微软雅黑" size="13px" weight="400" font-style="" y="115.5552083333333" transform="rotate(0)"><tspan id="SvgjsTspan1122" dy="16" x="385.375"><tspan id="SvgjsTspan1123" style="text-decoration:;">输入</tspan></tspan></text></g><g id="SvgjsG1124"><path id="SvgjsPath1125" d="M150 251.671875L186.6666666666667 251.671875L186.6666666666667 59.005208333333314L223.33333333333343 59.005208333333314" stroke="#323232" stroke-width="2" fill="none" marker-end="url(#SvgjsMarker1126)"></path></g></svg>